<svg width="20" height="21" viewBox="0 0 20 21" fill="none" xmlns="http://www.w3.org/2000/svg">
<g clip-path="url(#clip0_955_53841)">
<path d="M7 14L17 14" stroke="#0C0310" stroke-linecap="round"/>
<path d="M5 16.0181C6.10457 16.0181 7 15.1226 7 14.0181C7 12.9135 6.10457 12.0181 5 12.0181C3.89543 12.0181 3 12.9135 3 14.0181C3 15.1226 3.89543 16.0181 5 16.0181Z" stroke="#0C0310" stroke-linecap="round"/>
<path d="M3 7.01807H13" stroke="#0C0310" stroke-linecap="round"/>
<path d="M15 9.01807C16.1046 9.01807 17 8.12264 17 7.01807C17 5.9135 16.1046 5.01807 15 5.01807C13.8954 5.01807 13 5.9135 13 7.01807C13 8.12264 13.8954 9.01807 15 9.01807Z" stroke="#0C0310" stroke-linecap="round"/>
</g>
<defs>
<clipPath id="clip0_955_53841">
<rect width="20" height="20" fill="white" transform="translate(0 0.0180664)"/>
</clipPath>
</defs>
</svg>
