<svg width="32" height="32" viewBox="0 0 32 32" fill="none" xmlns="http://www.w3.org/2000/svg">
<path fill-rule="evenodd" clip-rule="evenodd" d="M6.25 9C6.25 8.58579 6.58579 8.25 7 8.25H25C25.4142 8.25 25.75 8.58579 25.75 9C25.75 9.41421 25.4142 9.75 25 9.75H7C6.58579 9.75 6.25 9.41421 6.25 9ZM6.25 16C6.25 15.5858 6.58579 15.25 7 15.25H25C25.4142 15.25 25.75 15.5858 25.75 16C25.75 16.4142 25.4142 16.75 25 16.75H7C6.58579 16.75 6.25 16.4142 6.25 16ZM7 22.25C6.58579 22.25 6.25 22.5858 6.25 23C6.25 23.4142 6.58579 23.75 7 23.75H25C25.4142 23.75 25.75 23.4142 25.75 23C25.75 22.5858 25.4142 22.25 25 22.25H7Z" fill="black"/>
</svg>
