<svg width="32" height="32" viewBox="0 0 32 32" fill="none" xmlns="http://www.w3.org/2000/svg">
<g clip-path="url(#clip0_2546_2524)">
<path d="M25.5838 10.9759L18.2509 5.27243C17.6074 4.77181 16.8153 4.5 16 4.5C15.1847 4.5 14.3926 4.77181 13.7491 5.27243L6.41488 10.9759C5.97411 11.3187 5.6175 11.7577 5.37229 12.2593C5.12707 12.7609 4.99974 13.3119 5 13.8703V23.7703C5 24.4997 5.28973 25.1991 5.80546 25.7149C6.32118 26.2306 7.02066 26.5203 7.75 26.5203H24.25C24.9793 26.5203 25.6788 26.2306 26.1945 25.7149C26.7103 25.1991 27 24.4997 27 23.7703V13.8703C27 12.7387 26.4775 11.6703 25.5838 10.9759Z" fill="black"/>
<mask id="mask0_2546_2524" style="mask-type:alpha" maskUnits="userSpaceOnUse" x="8" y="6" width="18" height="18">
<path d="M21.1149 14.2525V22.0916L10.4253 22.4479L9 9.62035L15.4138 7.48242L23.9655 9.79851L24.5891 12.2928L21.1149 14.2525Z" fill="#D9D9D9" stroke="white" stroke-width="1.5"/>
</mask>
<g mask="url(#mask0_2546_2524)">
<path d="M11 15.3093C11 15.0603 11.076 14.8607 11.2262 14.7106C11.3763 14.5604 11.5778 14.4844 11.8249 14.4844C12.072 14.4844 12.2811 14.5604 12.4294 14.7106C12.5776 14.8607 12.6518 15.0622 12.6518 15.3093V17.364H15.653V15.3093C15.653 15.0603 15.7291 14.8607 15.8792 14.7106C16.0294 14.5604 16.2309 14.4844 16.478 14.4844C16.7251 14.4844 16.9341 14.5604 17.0824 14.7106C17.2307 14.8607 17.3048 15.0622 17.3048 15.3093V21.1731C17.3048 21.4221 17.2307 21.6217 17.0824 21.7719C16.9341 21.922 16.7327 21.998 16.478 21.998C16.2233 21.998 16.0294 21.922 15.8792 21.7719C15.7291 21.6217 15.653 21.4202 15.653 21.1731V18.7554H12.6518V21.1731C12.6518 21.4221 12.5776 21.6217 12.4294 21.7719C12.2811 21.922 12.0796 21.998 11.8249 21.998C11.5702 21.998 11.3763 21.922 11.2262 21.7719C11.076 21.6217 11 21.4202 11 21.1731L11 15.3093Z" fill="white"/>
<path d="M18.7358 17.2043C18.7358 16.982 18.791 16.8052 18.9012 16.6702C19.0114 16.5353 19.2015 16.4688 19.4714 16.4688C19.7413 16.4688 19.9295 16.5353 20.0398 16.6702C20.15 16.8052 20.2051 16.982 20.2051 17.2043V21.2643C20.2051 21.4867 20.15 21.6635 20.0398 21.7985C19.9295 21.9334 19.7394 21.9999 19.4714 21.9999C19.2034 21.9999 19.0133 21.9334 18.9012 21.7985C18.7891 21.6635 18.7358 21.4867 18.7358 21.2643V17.2043Z" fill="white"/>
<path d="M19.6525 15.2942C19.5879 15.2942 19.5252 15.2618 19.489 15.2029C19.2001 14.7277 19.1982 13.4865 19.2343 12.3347L19.2419 12.1161C19.2591 11.5307 19.2895 10.5499 19.2419 10.2172C19.2267 10.1127 19.299 10.0177 19.4016 10.0025C19.5062 9.98535 19.6012 10.0595 19.6183 10.1621C19.6715 10.529 19.643 11.4907 19.624 12.1275L19.6164 12.3461C19.5993 12.8935 19.548 14.5624 19.816 15.0052C19.8711 15.0946 19.8426 15.2124 19.7533 15.2656C19.7228 15.2846 19.6886 15.2942 19.6544 15.2942H19.6525Z" fill="#C3C3C3"/>
<path opacity="0.4" d="M20.0557 10.7363C20.5119 11.0804 20.9453 11.126 21.4851 11.2457C22.1218 11.3883 22.7586 11.3921 23.3364 11.7456C22.9696 12.2227 22.0648 12.5249 21.5155 12.7606C20.9396 13.0058 20.4093 13.5456 19.7744 13.4392C19.7516 13.3708 19.782 13.3404 19.8657 13.3442" fill="white"/>
<path d="M19.9396 13.6425C19.8749 13.6425 19.8084 13.6368 19.7419 13.6254C19.6716 13.614 19.6145 13.5646 19.5917 13.4961C19.5518 13.3726 19.5955 13.2909 19.624 13.2509C19.662 13.2015 19.7362 13.1445 19.873 13.1502C19.9434 13.154 20.0042 13.1958 20.0346 13.2528C20.3197 13.2205 20.5972 13.0552 20.888 12.8803C21.0667 12.7739 21.2492 12.6636 21.4412 12.5819C21.5324 12.5439 21.6312 12.502 21.7377 12.4602C22.1539 12.2911 22.6994 12.0706 23.0264 11.7931C22.6994 11.6448 22.3516 11.5878 21.9848 11.5289C21.8099 11.5004 21.6274 11.4699 21.445 11.43C21.3632 11.411 21.2834 11.3958 21.2074 11.3787C20.774 11.2894 20.3634 11.2038 19.9434 10.8845C19.8597 10.8218 19.8426 10.702 19.9072 10.6184C19.97 10.5348 20.0897 10.5177 20.1734 10.5823C20.525 10.8484 20.8614 10.9187 21.2853 11.0062C21.3651 11.0233 21.445 11.0385 21.5286 11.0575C21.6997 11.0955 21.8764 11.124 22.0456 11.1525C22.5094 11.2285 22.9865 11.3065 23.435 11.5802C23.4807 11.6087 23.513 11.6543 23.5225 11.7075C23.532 11.7608 23.5187 11.8159 23.4864 11.8577C23.148 12.2987 22.4428 12.5838 21.8783 12.8119C21.7757 12.8537 21.6768 12.8936 21.5894 12.9316C21.4221 13.0038 21.2568 13.1027 21.0819 13.2072C20.7265 13.4201 20.3615 13.6406 19.9396 13.6406V13.6425Z" fill="#C3C3C3"/>
<path d="M19.7824 15.9286C20.139 15.7521 20.2849 15.3199 20.1084 14.9634C19.9318 14.6068 19.4997 14.4609 19.1432 14.6374C18.7866 14.8139 18.6407 15.2461 18.8172 15.6026C18.9937 15.9592 19.4259 16.1051 19.7824 15.9286Z" fill="#666666"/>
<path d="M19.4622 16.193C18.9604 16.193 18.5518 15.7843 18.5518 15.2825C18.5518 14.7807 18.9604 14.3721 19.4622 14.3721C19.964 14.3721 20.3727 14.7807 20.3727 15.2825C20.3727 15.7843 19.964 16.193 19.4622 16.193ZM19.4622 14.7522C19.1695 14.7522 18.9319 14.9898 18.9319 15.2825C18.9319 15.5752 19.1695 15.8128 19.4622 15.8128C19.7549 15.8128 19.9925 15.5752 19.9925 15.2825C19.9925 14.9898 19.7549 14.7522 19.4622 14.7522Z" fill="#C3C3C3"/>
</g>
</g>
<defs>
<clipPath id="clip0_2546_2524">
<rect width="32" height="32" fill="white"/>
</clipPath>
</defs>
</svg>
