<svg width="16" height="16" viewBox="0 0 16 16" fill="none" xmlns="http://www.w3.org/2000/svg">
<rect x="0.5" y="0.5" width="15" height="15" rx="7.5" fill="white"/>
<rect x="0.5" y="0.5" width="15" height="15" rx="7.5" stroke="#DFDFDF"/>
<path d="M8.817 6.3C8.817 5.877 8.43 5.526 7.98 5.526C7.206 5.526 6.918 6.39 6.918 6.39L6 5.967C6 5.967 6.432 4.5 7.98 4.5C9.06 4.5 9.897 5.301 9.897 6.3C9.897 7.092 9.483 7.47 8.898 7.983C8.583 8.262 8.565 8.28 8.565 8.604V9.063H7.494V8.397C7.494 7.812 7.719 7.686 8.304 7.182C8.637 6.894 8.817 6.723 8.817 6.3ZM7.323 10.305C7.323 9.909 7.638 9.594 8.034 9.594C8.43 9.594 8.745 9.909 8.745 10.305C8.745 10.701 8.43 11.016 8.034 11.016C7.638 11.016 7.323 10.701 7.323 10.305Z" fill="black"/>
</svg>
