<svg width="32" height="32" viewBox="0 0 32 32" fill="none" xmlns="http://www.w3.org/2000/svg">
<path fill-rule="evenodd" clip-rule="evenodd" d="M30.75 6C30.75 4.48122 29.5188 3.25 28 3.25H15C13.4812 3.25 12.25 4.48122 12.25 6V26.75H28C29.5188 26.75 30.75 25.5188 30.75 24V6ZM28 4.75C28.6904 4.75 29.25 5.30964 29.25 6V24C29.25 24.6904 28.6904 25.25 28 25.25H13.75V6C13.75 5.30964 14.3096 4.75 15 4.75H28Z" fill="black"/>
<path fill-rule="evenodd" clip-rule="evenodd" d="M13.75 7.25H8C4.27208 7.25 1.25 10.2721 1.25 14V25C1.25 25.9665 2.0335 26.75 3 26.75H13.75V7.25ZM12.25 8.75V25.25H3C2.86193 25.25 2.75 25.1381 2.75 25V14C2.75 11.1005 5.1005 8.75 8 8.75H12.25Z" fill="black"/>
<circle cx="2.25" cy="2.25" r="2.25" transform="matrix(-1 0 0 1 10.25 23.75)" fill="white"/>
<circle cx="23" cy="26" r="3" fill="white"/>
<path fill-rule="evenodd" clip-rule="evenodd" d="M23 29.75C20.9289 29.75 19.25 28.0711 19.25 26C19.25 23.9289 20.9289 22.25 23 22.25C25.0711 22.25 26.75 23.9289 26.75 26C26.75 28.0711 25.0711 29.75 23 29.75ZM23 28.25C21.7574 28.25 20.75 27.2426 20.75 26C20.75 24.7574 21.7574 23.75 23 23.75C24.2426 23.75 25.25 24.7574 25.25 26C25.25 27.2426 24.2426 28.25 23 28.25Z" fill="black"/>
<circle cx="8" cy="26" r="3" fill="white"/>
<path fill-rule="evenodd" clip-rule="evenodd" d="M8 29.75C5.92893 29.75 4.25 28.0711 4.25 26C4.25 23.9289 5.92893 22.25 8 22.25C10.0711 22.25 11.75 23.9289 11.75 26C11.75 28.0711 10.0711 29.75 8 29.75ZM8 28.25C6.75736 28.25 5.75 27.2426 5.75 26C5.75 24.7574 6.75736 23.75 8 23.75C9.24264 23.75 10.25 24.7574 10.25 26C10.25 27.2426 9.24264 28.25 8 28.25Z" fill="black"/>
<path d="M2 15H13V16.5H2V15Z" fill="black"/>
</svg>
