<svg width="50" height="50" viewBox="0 0 50 50" fill="none" xmlns="http://www.w3.org/2000/svg">
<rect width="50" height="50" rx="25" fill="#FEE500"/>
<path d="M24.9914 14C18.3533 14 13 18.2826 13 23.4818C13 26.8565 15.227 29.8115 18.5675 31.4989L17.4368 35.7216C17.4155 35.7849 17.4122 35.8528 17.4274 35.9179C17.4425 35.9829 17.4754 36.0425 17.5225 36.0899C17.5911 36.1504 17.6794 36.1839 17.7709 36.1841C17.8467 36.178 17.9187 36.148 17.9764 36.0984L22.8415 32.818C23.5597 32.9171 24.2836 32.9685 25.0086 32.9721C31.6381 32.9721 37 28.6895 37 23.4818C37 18.274 31.621 14 24.9914 14Z" fill="#392020"/>
</svg>
