<svg width="24" height="24" viewBox="0 0 24 24" fill="none" xmlns="http://www.w3.org/2000/svg">
<circle cx="12" cy="7.5" r="3.75" stroke="black" stroke-width="1.5"/>
<mask id="path-2-inside-1_310_800" fill="white">
<path fill-rule="evenodd" clip-rule="evenodd" d="M19 22C20.1046 22 21 21.1046 21 20C21 16.134 17.866 13 14 13L10 13C6.13401 13 3 16.134 3 20C3 21.1046 3.89543 22 5 22L19 22Z"/>
</mask>
<path d="M10 13L10 11.5L10 11.5L10 13ZM14 14.5C17.0376 14.5 19.5 16.9624 19.5 20L22.5 20C22.5 15.3056 18.6944 11.5 14 11.5L14 14.5ZM10 14.5L14 14.5L14 11.5L10 11.5L10 14.5ZM4.5 20C4.5 16.9624 6.96243 14.5 10 14.5L10 11.5C5.30558 11.5 1.5 15.3056 1.5 20L4.5 20ZM5 23.5L19 23.5L19 20.5L5 20.5L5 23.5ZM1.5 20C1.5 21.933 3.067 23.5 5 23.5L5 20.5C4.72386 20.5 4.5 20.2761 4.5 20L1.5 20ZM19.5 20C19.5 20.2761 19.2761 20.5 19 20.5L19 23.5C20.933 23.5 22.5 21.933 22.5 20L19.5 20Z" fill="black" mask="url(#path-2-inside-1_310_800)"/>
</svg>
