<svg width="10" height="6" viewBox="0 0 10 6" fill="none" xmlns="http://www.w3.org/2000/svg">
<path d="M9.63916 5.44801C9.73203 5.35722 9.78858 5.23567 9.79821 5.10615C9.80783 4.97664 9.76986 4.84806 9.69143 4.74454L9.6477 4.69388L5.47863 0.427211C5.3889 0.33538 5.26906 0.278998 5.14111 0.268417C5.01316 0.257836 4.88569 0.293767 4.78209 0.369611L4.7309 0.412278L0.367162 4.53121C0.268442 4.62429 0.20891 4.7515 0.200688 4.88694C0.192466 5.02237 0.236173 5.15584 0.322908 5.26019C0.409643 5.36453 0.532886 5.43189 0.667542 5.44855C0.802198 5.46521 0.938143 5.42993 1.0477 5.34988L1.0989 5.30721L5.08236 1.54774L8.88503 5.43948C8.97582 5.53235 9.09737 5.5889 9.22689 5.59852C9.3564 5.60814 9.48498 5.57018 9.5885 5.49174L9.63916 5.44801Z" fill="#333333"/>
</svg>
