<svg width="10" height="6" viewBox="0 0 10 6" fill="none" xmlns="http://www.w3.org/2000/svg">
<path d="M0.360837 0.551989C0.267967 0.642776 0.211417 0.76433 0.201794 0.893847C0.192171 1.02336 0.230138 1.15194 0.308571 1.25546L0.352305 1.30612L4.52137 5.57279C4.6111 5.66462 4.73094 5.721 4.85889 5.73158C4.98684 5.74216 5.11431 5.70623 5.21791 5.63039L5.2691 5.58772L9.63284 1.46879C9.73156 1.37571 9.79109 1.2485 9.79931 1.11306C9.80753 0.977631 9.76383 0.844155 9.67709 0.739814C9.59036 0.635474 9.46711 0.568113 9.33246 0.55145C9.1978 0.534786 9.06186 0.570073 8.9523 0.650123L8.9011 0.692789L4.91764 4.45226L1.11497 0.560521C1.02418 0.467652 0.90263 0.411101 0.773113 0.401478C0.643598 0.391855 0.515019 0.429822 0.411505 0.508255L0.360837 0.551989Z" fill="#333333"/>
</svg>
