<svg width="16" height="16" viewBox="0 0 16 16" fill="none" xmlns="http://www.w3.org/2000/svg">
<g clip-path="url(#clip0_910_38923)">
<path d="M4.66667 6.66667V12C4.66667 12.1768 4.59643 12.3464 4.4714 12.4714C4.34638 12.5964 4.17681 12.6667 4 12.6667H2.66667C2.48986 12.6667 2.32029 12.5964 2.19526 12.4714C2.07024 12.3464 2 12.1768 2 12V7.33333C2 7.15652 2.07024 6.98695 2.19526 6.86193C2.32029 6.73691 2.48986 6.66667 2.66667 6.66667H4.66667ZM4.66667 6.66667C5.37391 6.66667 6.05219 6.38572 6.55228 5.88562C7.05238 5.38552 7.33333 4.70724 7.33333 4V3.33333C7.33333 2.97971 7.47381 2.64057 7.72386 2.39052C7.97391 2.14048 8.31304 2 8.66667 2C9.02029 2 9.35943 2.14048 9.60948 2.39052C9.85952 2.64057 10 2.97971 10 3.33333V6.66667H12C12.3536 6.66667 12.6928 6.80714 12.9428 7.05719C13.1929 7.30724 13.3333 7.64638 13.3333 8L12.6667 11.3333C12.5708 11.7423 12.3889 12.0935 12.1484 12.334C11.908 12.5745 11.6219 12.6912 11.3333 12.6667H6.66667C6.13623 12.6667 5.62753 12.456 5.25245 12.0809C4.87738 11.7058 4.66667 11.1971 4.66667 10.6667" stroke="#A5A5A5" stroke-linecap="round" stroke-linejoin="round"/>
</g>
<defs>
<clipPath id="clip0_910_38923">
<rect width="16" height="16" fill="white"/>
</clipPath>
</defs>
</svg>
