<svg width="65" height="64" viewBox="0 0 65 64" fill="none" xmlns="http://www.w3.org/2000/svg">
<path fill-rule="evenodd" clip-rule="evenodd" d="M14.5699 7.21039C12.1334 7.21039 10.1209 9.11319 9.98455 11.5459L7.71999 51.9401C7.57237 54.5734 9.66793 56.7897 12.3054 56.7897H52.6945C55.332 56.7897 57.4275 54.5734 57.2799 51.9401L55.0153 11.5459C54.879 9.11318 52.8665 7.21039 50.43 7.21039H14.5699ZM11.4822 11.6299C11.574 9.99171 12.9292 8.71039 14.5699 8.71039H50.43C52.0707 8.71039 53.4258 9.9917 53.5177 11.6299L55.7822 52.024C55.8817 53.7973 54.4705 55.2897 52.6945 55.2897H12.3054C10.5294 55.2897 9.11823 53.7973 9.21764 52.0241L11.4822 11.6299ZM32.4999 25.908C28.4418 25.908 25.1637 22.6498 25.1637 18.6448H23.6637C23.6637 23.491 27.6262 27.408 32.4999 27.408C37.3736 27.408 41.3361 23.491 41.3361 18.6448H39.8361C39.8361 22.6498 36.558 25.908 32.4999 25.908Z" fill="#DFDFDF"/>
</svg>
