<svg width="12" height="12" viewBox="0 0 12 12" fill="none" xmlns="http://www.w3.org/2000/svg">
<path fill-rule="evenodd" clip-rule="evenodd" d="M7.12544 0.88586L10.7919 3.73498C11.2388 4.08185 11.5 4.61554 11.5 5.18083V10.1263C11.5 10.4906 11.3551 10.84 11.0973 11.0976C10.8394 11.3553 10.4897 11.5 10.125 11.5H7.5V9.5C7.5 8.94772 7.05228 8.5 6.5 8.5H5.5C4.94772 8.5 4.5 8.94771 4.5 9.5V11.5H1.875C1.51033 11.5 1.16059 11.3553 0.902729 11.0976C0.644866 10.84 0.5 10.4906 0.5 10.1263V5.18083C0.499869 4.90191 0.563537 4.62665 0.686145 4.37607C0.808752 4.12548 0.987055 3.90621 1.20744 3.73498L4.87456 0.88586C5.19632 0.635778 5.59234 0.5 6 0.5C6.40766 0.5 6.80368 0.635778 7.12544 0.88586Z" fill="#A5A5A5"/>
</svg>
